<svg viewBox="0 0 58 56" fill="none" xmlns="http://www.w3.org/2000/svg">
<path d="M29 56C45.0163 56 58 43.464 58 28C58 12.536 45.0163 0 29 0C12.9837 0 0 12.536 0 28C0 43.464 12.9837 56 29 56Z" fill="#683B2B"/>
<path d="M13.1746 22.6406H19.9114V43.5488H13.1746V22.6406ZM16.5447 12.25C17.3165 12.2504 18.0707 12.4718 18.7122 12.8861C19.3537 13.3004 19.8535 13.889 20.1486 14.5775C20.4436 15.2661 20.5205 16.0236 20.3697 16.7544C20.2189 17.4852 19.847 18.1564 19.3011 18.6831C18.7553 19.2098 18.0599 19.5685 17.3029 19.7137C16.546 19.8589 15.7614 19.7842 15.0485 19.4989C14.3355 19.2137 13.7261 18.7307 13.2974 18.1111C12.8687 17.4915 12.6399 16.7631 12.6399 16.018C12.64 15.523 12.7412 15.0329 12.9375 14.5757C13.1338 14.1185 13.4215 13.703 13.7841 13.3532C14.1466 13.0033 14.5771 12.7258 15.0507 12.5365C15.5244 12.3472 16.0321 12.2499 16.5447 12.25Z" fill="#EDE4D6"/>
<path d="M24.1289 22.6406H30.5859V25.4997H30.6788C31.576 23.8591 33.7725 22.1222 37.0464 22.1222C43.8614 22.1222 45.1199 26.4523 45.1199 32.083V43.5487H38.391V33.3769C38.391 30.952 38.348 27.8327 34.894 27.8327C31.3925 27.8327 30.8578 30.4752 30.8578 33.203V43.5444H24.1289V22.6406Z" fill="#EDE4D6"/>
</svg>
