<svg viewBox="0 0 32 32" fill="none" xmlns="http://www.w3.org/2000/svg">
<path d="M21.3333 12.0001V6.66675L32 16.0001L21.3333 25.3334V20.0001H10.6667V12.0001H21.3333ZM18.6667 25.3334V25.2227C17.096 26.1361 15.2773 26.6667 13.3333 26.6667C7.452 26.6667 2.66667 21.8814 2.66667 16.0001C2.66667 10.1187 7.452 5.33341 13.3333 5.33341C15.2773 5.33341 17.096 5.86408 18.6667 6.77742V3.78408C17.032 3.06941 15.2307 2.66675 13.3333 2.66675C5.97067 2.66675 0 8.63608 0 16.0001C0 23.3641 5.97067 29.3334 13.3333 29.3334C15.2307 29.3334 17.032 28.9307 18.6667 28.2161V25.3334Z" fill="#683B2B"/>
</svg>
