<svg viewBox="0 0 58 56" fill="none" xmlns="http://www.w3.org/2000/svg">
<path d="M29 56C45.0163 56 58 43.464 58 28C58 12.536 45.0163 0 29 0C12.9837 0 0 12.536 0 28C0 43.464 12.9837 56 29 56Z" fill="#683B2B"/>
<path fill-rule="evenodd" clip-rule="evenodd" d="M41.4927 25.586H38.6606C39.0494 27.0137 39.0938 28.5085 38.7902 29.9554C38.4867 31.4022 37.8433 32.7625 36.9097 33.9316C35.9761 35.1007 34.7771 36.0473 33.4051 36.6987C32.033 37.3501 30.5244 37.6888 28.9955 37.6888C27.4665 37.6888 25.958 37.3501 24.5859 36.6987C23.2138 36.0473 22.0148 35.1007 21.0812 33.9316C20.1476 32.7625 19.5043 31.4022 19.2007 29.9554C18.8972 28.5085 18.9415 27.0137 19.3303 25.586H16.4983V38.8554C16.4983 39.1745 16.6296 39.4805 16.8633 39.7062C17.097 39.9318 17.4139 40.0585 17.7444 40.0585H40.2421C40.5725 40.0585 40.8895 39.9318 41.1232 39.7062C41.3569 39.4805 41.4881 39.1745 41.4881 38.8554L41.4927 25.586ZM41.4927 17.1434C41.4927 16.8243 41.3614 16.5183 41.1277 16.2926C40.894 16.067 40.5771 15.9403 40.2466 15.9403H36.4958C36.1654 15.9403 35.8484 16.067 35.6147 16.2926C35.381 16.5183 35.2497 16.8243 35.2497 17.1434V20.7626C35.2497 21.0817 35.381 21.3877 35.6147 21.6133C35.8484 21.839 36.1654 21.9657 36.4958 21.9657H40.2421C40.5725 21.9657 40.8895 21.839 41.1232 21.6133C41.3569 21.3877 41.4881 21.0817 41.4881 20.7626L41.4927 17.1434ZM29 21.969C27.7646 21.969 26.5569 22.3227 25.5297 22.9854C24.5025 23.6481 23.7019 24.59 23.2292 25.692C22.7564 26.794 22.6327 28.0066 22.8737 29.1765C23.1147 30.3464 23.7096 31.421 24.5832 32.2645C25.4568 33.1079 26.5697 33.6823 27.7814 33.915C28.9931 34.1477 30.249 34.0283 31.3904 33.5718C32.5318 33.1153 33.5073 32.3423 34.1937 31.3506C34.88 30.3588 35.2463 29.1928 35.2463 27.9999C35.2465 27.2079 35.085 26.4236 34.7712 25.6918C34.4573 24.9601 33.9972 24.2952 33.4172 23.7351C32.8371 23.1751 32.1485 22.7308 31.3906 22.4278C30.6327 22.1248 29.8203 21.9689 29 21.969V21.969ZM41.4927 43.6799H16.5074C15.5134 43.6797 14.5602 43.2982 13.8575 42.6195C13.1548 41.9408 12.76 41.0204 12.76 40.0607V15.9381C12.76 14.9785 13.1548 14.0582 13.8576 13.3797C14.5603 12.7011 15.5135 12.3199 16.5074 12.3199H41.4927C41.9848 12.3198 42.4722 12.4133 42.9269 12.5951C43.3816 12.7768 43.7948 13.0433 44.1428 13.3793C44.4908 13.7154 44.7668 14.1143 44.9551 14.5533C45.1433 14.9923 45.2402 15.4629 45.24 15.9381V40.0607C45.2402 40.536 45.1434 41.0066 44.9551 41.4457C44.7668 41.8848 44.4908 42.2838 44.1429 42.6198C43.7949 42.9559 43.3817 43.2225 42.927 43.4044C42.4723 43.5863 41.9849 43.6799 41.4927 43.6799" fill="#EDE4D6"/>
</svg>
