<svg viewBox="0 0 32 32" fill="none" xmlns="http://www.w3.org/2000/svg">
<path d="M10.6667 12V6.66663L21.3333 16L10.6667 25.3333V20H0V12H10.6667ZM18.6667 2.66663C16.284 2.66663 14.0533 3.29863 12.1187 4.39329L12.4227 4.65996L14.2827 6.28796C15.6213 5.67996 17.1027 5.33329 18.6667 5.33329C24.548 5.33329 29.3333 10.1186 29.3333 16C29.3333 21.8813 24.548 26.6666 18.6667 26.6666C17.1027 26.6666 15.6213 26.32 14.2827 25.7133L12.4227 27.3413L12.1187 27.608C14.0533 28.7013 16.284 29.3333 18.6667 29.3333C26.0293 29.3333 32 23.364 32 16C32 8.63596 26.0293 2.66663 18.6667 2.66663Z" fill="#683B2B" />
</svg>
