<svg viewBox="0 0 58 56" fill="none" xmlns="http://www.w3.org/2000/svg">
<path d="M29 56C45.0163 56 58 43.464 58 28C58 12.536 45.0163 0 29 0C12.9837 0 0 12.536 0 28C0 43.464 12.9837 56 29 56Z" fill="#683B2B"/>
<path d="M43.1092 12.6875H14.8908C14.4266 12.6875 13.9815 12.8655 13.6532 13.1824C13.325 13.4994 13.1406 13.9292 13.1406 14.3773V41.6227C13.1406 42.0708 13.325 42.5006 13.6532 42.8176C13.9815 43.1345 14.4266 43.3125 14.8908 43.3125H30.0818V31.453H25.9493V26.8308H30.083V23.4227C30.083 19.4677 32.5854 17.313 36.2398 17.313C37.4734 17.3104 38.7062 17.3728 39.9328 17.5V21.6344H37.3987C35.4106 21.6344 35.0254 22.5466 35.0254 23.8842V26.8373H39.7617L39.1443 31.4595H35.0266V43.3125H43.1092C43.339 43.3125 43.5666 43.2688 43.779 43.1839C43.9913 43.0989 44.1842 42.9745 44.3468 42.8176C44.5093 42.6606 44.6382 42.4744 44.7262 42.2693C44.8141 42.0643 44.8594 41.8446 44.8594 41.6227V14.3773C44.8594 13.9292 44.675 13.4994 44.3468 13.1824C44.0185 12.8655 43.5734 12.6875 43.1092 12.6875Z" fill="#EDE4D6"/>
</svg>
