<svg  viewBox="0 0 47 45"  fill="none" xmlns="http://www.w3.org/2000/svg">
<path d="M34.2562 5.59009C39.9338 5.59009 44.5312 10.1867 44.5312 15.8529C44.5312 26.1157 34.2563 31.9592 23.9944 42.2221C13.7316 31.9592 3.46875 26.1157 3.46875 15.853C3.46875 10.1867 8.06625 5.59018 13.7316 5.59018C18.8625 5.59018 21.4284 8.15612 23.9944 13.2871C26.5594 8.15612 29.1253 5.59009 34.2562 5.59009Z" fill="#ede4d6"/>
<path d="M34.2562 5.59009C39.9338 5.59009 44.5312 10.1867 44.5312 15.8529C44.5312 26.1157 34.2563 31.9592 23.9944 42.2221C13.7316 31.9592 3.46875 26.1157 3.46875 15.853C3.46875 10.1867 8.06625 5.59018 13.7316 5.59018C18.8625 5.59018 21.4284 8.15612 23.9944 13.2871C26.5594 8.15612 29.1253 5.59009 34.2562 5.59009Z" fill="#683B2B"/>
</svg>
